<svg width="54" height="44" viewBox="0 0 54 44" fill="none" xmlns="http://www.w3.org/2000/svg">
<g clip-path="url(#clip0_16_16)">
<path d="M16.2622 15.0344L17.0864 11H0.824204L0 15.0344H5.83283L2.21901 33H6.81554L10.4294 15.0344H16.2622Z" fill="#00CEFB"/>
<path d="M30.4745 33L31.2987 28.9656H21.3449L22.3593 23.8911H30.8549L31.6791 19.8567H23.1835L24.1662 15.0344H33.7713L34.5955 11H20.3622L15.9241 33H30.4745Z" fill="#00CEFB"/>
<path d="M38.8473 33L40.464 24.9628H45.4093C50.4179 24.9628 54 21.7163 54 16.894C54 13.1748 51.4323 11 47.026 11H38.6888L34.2508 33H38.8473ZM42.4611 15.0344H47.2162C48.611 15.0344 49.245 15.7908 49.245 16.7364C49.245 17.0831 49.0865 17.6819 48.8963 18.6275C48.5793 20.1719 47.4381 20.9284 46.0116 20.9284H41.2882L42.4611 15.0344Z" fill="#00CEFB"/>
</g>
<defs>
<clipPath id="clip0_16_16">
<rect width="53.87" height="43.61" fill="white"/>
</clipPath>
</defs>
</svg>
